<mxfile host="app.diagrams.net" agent="Mozilla/5.0 (Windows NT 10.0; Win64; x64) AppleWebKit/537.36 (KHTML, like Gecko) Chrome/136.0.0.0 Safari/537.36 Edg/136.0.0.0" version="26.2.14">
  <diagram id="prtHgNgQTEPvFCAcTncT" name="Page-1">
    <mxGraphModel dx="1037" dy="589" grid="1" gridSize="10" guides="1" tooltips="1" connect="1" arrows="1" fold="1" page="1" pageScale="1" pageWidth="827" pageHeight="1169" math="0" shadow="0">
      <root>
        <mxCell id="0" />
        <mxCell id="1" parent="0" />
        <mxCell id="dNxyNK7c78bLwvsdeMH5-19" value="Регистрация&amp;nbsp; в системе" style="swimlane;html=1;childLayout=stackLayout;resizeParent=1;resizeParentMax=0;horizontal=0;startSize=20;horizontalStack=0;" parent="1" vertex="1">
          <mxGeometry x="69" y="50" width="900" height="480" as="geometry" />
        </mxCell>
        <mxCell id="dNxyNK7c78bLwvsdeMH5-20" value="Пользователь" style="swimlane;html=1;startSize=20;horizontal=0;" parent="dNxyNK7c78bLwvsdeMH5-19" vertex="1">
          <mxGeometry x="20" width="880" height="120" as="geometry" />
        </mxCell>
        <mxCell id="dNxyNK7c78bLwvsdeMH5-23" value="&lt;font style=&quot;font-size: 6px;&quot;&gt;Начало&lt;/font&gt;" style="ellipse;whiteSpace=wrap;html=1;" parent="dNxyNK7c78bLwvsdeMH5-20" vertex="1">
          <mxGeometry x="51" y="40" width="40" height="40" as="geometry" />
        </mxCell>
        <mxCell id="BDskTO6To6dDaFqz6M62-13" value="&lt;font style=&quot;font-size: 6px;&quot;&gt;Заполнение полей формы регистрации&lt;/font&gt;" style="rounded=0;whiteSpace=wrap;html=1;fontFamily=Helvetica;fontSize=12;fontColor=#000000;align=center;" vertex="1" parent="dNxyNK7c78bLwvsdeMH5-20">
          <mxGeometry x="151" y="30" width="80" height="60" as="geometry" />
        </mxCell>
        <mxCell id="BDskTO6To6dDaFqz6M62-26" value="&lt;font style=&quot;font-size: 6px;&quot;&gt;Ожидание подтверждения заявки&lt;/font&gt;" style="rounded=0;whiteSpace=wrap;html=1;fontFamily=Helvetica;fontSize=12;fontColor=#000000;align=center;" vertex="1" parent="dNxyNK7c78bLwvsdeMH5-20">
          <mxGeometry x="431" y="30" width="80" height="60" as="geometry" />
        </mxCell>
        <mxCell id="BDskTO6To6dDaFqz6M62-36" style="edgeStyle=orthogonalEdgeStyle;rounded=0;orthogonalLoop=1;jettySize=auto;html=1;entryX=0;entryY=0.5;entryDx=0;entryDy=0;" edge="1" parent="dNxyNK7c78bLwvsdeMH5-20" source="BDskTO6To6dDaFqz6M62-32" target="BDskTO6To6dDaFqz6M62-35">
          <mxGeometry relative="1" as="geometry" />
        </mxCell>
        <mxCell id="BDskTO6To6dDaFqz6M62-32" value="&lt;font style=&quot;font-size: 6px;&quot;&gt;Возможность войти в систему&lt;/font&gt;" style="rounded=0;whiteSpace=wrap;html=1;fontFamily=Helvetica;fontSize=12;fontColor=#000000;align=center;" vertex="1" parent="dNxyNK7c78bLwvsdeMH5-20">
          <mxGeometry x="681" y="30" width="80" height="60" as="geometry" />
        </mxCell>
        <mxCell id="BDskTO6To6dDaFqz6M62-35" value="&lt;font style=&quot;font-size: 6px;&quot;&gt;Конец&lt;/font&gt;" style="ellipse;whiteSpace=wrap;html=1;" vertex="1" parent="dNxyNK7c78bLwvsdeMH5-20">
          <mxGeometry x="801" y="40" width="40" height="40" as="geometry" />
        </mxCell>
        <mxCell id="dNxyNK7c78bLwvsdeMH5-21" value="Система" style="swimlane;html=1;startSize=20;horizontal=0;" parent="dNxyNK7c78bLwvsdeMH5-19" vertex="1">
          <mxGeometry x="20" y="120" width="880" height="120" as="geometry" />
        </mxCell>
        <mxCell id="dNxyNK7c78bLwvsdeMH5-26" value="&lt;font style=&quot;font-size: 6px;&quot;&gt;Отображение формы регистрации&lt;/font&gt;" style="rounded=0;whiteSpace=wrap;html=1;fontFamily=Helvetica;fontSize=12;fontColor=#000000;align=center;" parent="dNxyNK7c78bLwvsdeMH5-21" vertex="1">
          <mxGeometry x="41" y="30" width="80" height="60" as="geometry" />
        </mxCell>
        <mxCell id="dNxyNK7c78bLwvsdeMH5-28" value="&lt;font style=&quot;font-size: 8px;&quot;&gt;Данные&lt;/font&gt;&lt;div&gt;&lt;font style=&quot;font-size: 8px;&quot;&gt;валидны?&lt;/font&gt;&lt;/div&gt;" style="rhombus;whiteSpace=wrap;html=1;fontFamily=Helvetica;fontSize=12;fontColor=#000000;align=center;" parent="dNxyNK7c78bLwvsdeMH5-21" vertex="1">
          <mxGeometry x="231" y="20" width="119" height="60" as="geometry" />
        </mxCell>
        <mxCell id="BDskTO6To6dDaFqz6M62-38" value="&lt;font style=&quot;font-size: 6px;&quot;&gt;Изменения активность пользователя&lt;/font&gt;" style="rounded=0;whiteSpace=wrap;html=1;fontFamily=Helvetica;fontSize=12;fontColor=#000000;align=center;" vertex="1" parent="dNxyNK7c78bLwvsdeMH5-21">
          <mxGeometry x="681" y="30" width="80" height="60" as="geometry" />
        </mxCell>
        <mxCell id="dNxyNK7c78bLwvsdeMH5-22" value="Администратор" style="swimlane;html=1;startSize=20;horizontal=0;" parent="dNxyNK7c78bLwvsdeMH5-19" vertex="1">
          <mxGeometry x="20" y="240" width="880" height="120" as="geometry" />
        </mxCell>
        <mxCell id="BDskTO6To6dDaFqz6M62-27" value="&lt;span style=&quot;font-size: 8px;&quot;&gt;Заявка подтверждена?&lt;/span&gt;" style="rhombus;whiteSpace=wrap;html=1;fontFamily=Helvetica;fontSize=12;fontColor=#000000;align=center;" vertex="1" parent="dNxyNK7c78bLwvsdeMH5-22">
          <mxGeometry x="541" y="30" width="119" height="60" as="geometry" />
        </mxCell>
        <mxCell id="BDskTO6To6dDaFqz6M62-8" value="База данных" style="swimlane;html=1;startSize=20;horizontal=0;" vertex="1" parent="dNxyNK7c78bLwvsdeMH5-19">
          <mxGeometry x="20" y="360" width="880" height="120" as="geometry" />
        </mxCell>
        <mxCell id="BDskTO6To6dDaFqz6M62-18" value="&lt;font style=&quot;font-size: 6px;&quot;&gt;Сохранение заявки&lt;/font&gt;" style="rounded=0;whiteSpace=wrap;html=1;fontFamily=Helvetica;fontSize=12;fontColor=#000000;align=center;" vertex="1" parent="BDskTO6To6dDaFqz6M62-8">
          <mxGeometry x="250.5" y="30" width="80" height="60" as="geometry" />
        </mxCell>
        <mxCell id="BDskTO6To6dDaFqz6M62-29" value="&lt;font style=&quot;font-size: 6px;&quot;&gt;Удаление пользователя и заявки&lt;/font&gt;" style="rounded=0;whiteSpace=wrap;html=1;fontFamily=Helvetica;fontSize=12;fontColor=#000000;align=center;" vertex="1" parent="BDskTO6To6dDaFqz6M62-8">
          <mxGeometry x="560.5" y="40" width="80" height="60" as="geometry" />
        </mxCell>
        <mxCell id="dNxyNK7c78bLwvsdeMH5-25" value="" style="edgeStyle=orthogonalEdgeStyle;rounded=0;orthogonalLoop=1;jettySize=auto;html=1;entryX=0.386;entryY=-0.003;entryDx=0;entryDy=0;entryPerimeter=0;" parent="dNxyNK7c78bLwvsdeMH5-19" source="dNxyNK7c78bLwvsdeMH5-23" target="dNxyNK7c78bLwvsdeMH5-26" edge="1">
          <mxGeometry relative="1" as="geometry">
            <mxPoint x="121" y="140" as="targetPoint" />
            <Array as="points" />
          </mxGeometry>
        </mxCell>
        <mxCell id="BDskTO6To6dDaFqz6M62-15" value="" style="endArrow=classic;html=1;rounded=0;entryX=0.5;entryY=1;entryDx=0;entryDy=0;exitX=1;exitY=0.5;exitDx=0;exitDy=0;" edge="1" parent="dNxyNK7c78bLwvsdeMH5-19" source="dNxyNK7c78bLwvsdeMH5-26" target="BDskTO6To6dDaFqz6M62-13">
          <mxGeometry width="50" height="50" relative="1" as="geometry">
            <mxPoint x="141" y="150" as="sourcePoint" />
            <mxPoint x="191" y="100" as="targetPoint" />
            <Array as="points">
              <mxPoint x="211" y="180" />
            </Array>
          </mxGeometry>
        </mxCell>
        <mxCell id="BDskTO6To6dDaFqz6M62-16" value="" style="endArrow=classic;html=1;rounded=0;exitX=1;exitY=0.5;exitDx=0;exitDy=0;entryX=0.5;entryY=0;entryDx=0;entryDy=0;" edge="1" parent="dNxyNK7c78bLwvsdeMH5-19" source="BDskTO6To6dDaFqz6M62-13" target="dNxyNK7c78bLwvsdeMH5-28">
          <mxGeometry width="50" height="50" relative="1" as="geometry">
            <mxPoint x="361" y="70" as="sourcePoint" />
            <mxPoint x="321" y="60" as="targetPoint" />
            <Array as="points">
              <mxPoint x="311" y="60" />
            </Array>
          </mxGeometry>
        </mxCell>
        <mxCell id="BDskTO6To6dDaFqz6M62-17" value="" style="endArrow=classic;html=1;rounded=0;exitX=0.5;exitY=1;exitDx=0;exitDy=0;entryX=0.5;entryY=0;entryDx=0;entryDy=0;" edge="1" parent="dNxyNK7c78bLwvsdeMH5-19" source="dNxyNK7c78bLwvsdeMH5-28" target="BDskTO6To6dDaFqz6M62-18">
          <mxGeometry width="50" height="50" relative="1" as="geometry">
            <mxPoint x="361" y="340" as="sourcePoint" />
            <mxPoint x="311" y="380" as="targetPoint" />
          </mxGeometry>
        </mxCell>
        <mxCell id="BDskTO6To6dDaFqz6M62-19" value="Да" style="edgeLabel;html=1;align=center;verticalAlign=middle;resizable=0;points=[];" vertex="1" connectable="0" parent="BDskTO6To6dDaFqz6M62-17">
          <mxGeometry x="-0.7574" y="-2" relative="1" as="geometry">
            <mxPoint as="offset" />
          </mxGeometry>
        </mxCell>
        <mxCell id="BDskTO6To6dDaFqz6M62-20" value="" style="endArrow=classic;html=1;rounded=0;exitX=1;exitY=0.5;exitDx=0;exitDy=0;entryX=0.5;entryY=0;entryDx=0;entryDy=0;" edge="1" parent="dNxyNK7c78bLwvsdeMH5-19" source="dNxyNK7c78bLwvsdeMH5-28" target="BDskTO6To6dDaFqz6M62-13">
          <mxGeometry width="50" height="50" relative="1" as="geometry">
            <mxPoint x="411" y="170" as="sourcePoint" />
            <mxPoint x="191" y="10" as="targetPoint" />
            <Array as="points">
              <mxPoint x="391" y="170" />
              <mxPoint x="391" y="10" />
              <mxPoint x="211" y="10" />
            </Array>
          </mxGeometry>
        </mxCell>
        <mxCell id="BDskTO6To6dDaFqz6M62-21" value="Нет" style="edgeLabel;html=1;align=center;verticalAlign=middle;resizable=0;points=[];" vertex="1" connectable="0" parent="BDskTO6To6dDaFqz6M62-20">
          <mxGeometry x="-0.9584" relative="1" as="geometry">
            <mxPoint x="13" y="-10" as="offset" />
          </mxGeometry>
        </mxCell>
        <mxCell id="BDskTO6To6dDaFqz6M62-24" value="" style="endArrow=classic;html=1;rounded=0;exitX=1;exitY=0.5;exitDx=0;exitDy=0;entryX=0.5;entryY=1;entryDx=0;entryDy=0;" edge="1" parent="dNxyNK7c78bLwvsdeMH5-19" source="BDskTO6To6dDaFqz6M62-18" target="BDskTO6To6dDaFqz6M62-26">
          <mxGeometry width="50" height="50" relative="1" as="geometry">
            <mxPoint x="381" y="420" as="sourcePoint" />
            <mxPoint x="451" y="410" as="targetPoint" />
            <Array as="points">
              <mxPoint x="491" y="420" />
            </Array>
          </mxGeometry>
        </mxCell>
        <mxCell id="BDskTO6To6dDaFqz6M62-28" style="edgeStyle=orthogonalEdgeStyle;rounded=0;orthogonalLoop=1;jettySize=auto;html=1;entryX=0.5;entryY=0;entryDx=0;entryDy=0;" edge="1" parent="dNxyNK7c78bLwvsdeMH5-19" source="BDskTO6To6dDaFqz6M62-26" target="BDskTO6To6dDaFqz6M62-27">
          <mxGeometry relative="1" as="geometry" />
        </mxCell>
        <mxCell id="BDskTO6To6dDaFqz6M62-30" style="edgeStyle=orthogonalEdgeStyle;rounded=0;orthogonalLoop=1;jettySize=auto;html=1;entryX=0.5;entryY=0;entryDx=0;entryDy=0;" edge="1" parent="dNxyNK7c78bLwvsdeMH5-19" source="BDskTO6To6dDaFqz6M62-27" target="BDskTO6To6dDaFqz6M62-29">
          <mxGeometry relative="1" as="geometry" />
        </mxCell>
        <mxCell id="BDskTO6To6dDaFqz6M62-31" value="Нет" style="edgeLabel;html=1;align=center;verticalAlign=middle;resizable=0;points=[];" vertex="1" connectable="0" parent="BDskTO6To6dDaFqz6M62-30">
          <mxGeometry x="-0.6451" y="-1" relative="1" as="geometry">
            <mxPoint as="offset" />
          </mxGeometry>
        </mxCell>
        <mxCell id="BDskTO6To6dDaFqz6M62-33" style="edgeStyle=orthogonalEdgeStyle;rounded=0;orthogonalLoop=1;jettySize=auto;html=1;entryX=0.5;entryY=1;entryDx=0;entryDy=0;" edge="1" parent="dNxyNK7c78bLwvsdeMH5-19" source="BDskTO6To6dDaFqz6M62-27" target="BDskTO6To6dDaFqz6M62-38">
          <mxGeometry relative="1" as="geometry">
            <mxPoint x="741" y="220" as="targetPoint" />
          </mxGeometry>
        </mxCell>
        <mxCell id="BDskTO6To6dDaFqz6M62-34" value="Да" style="edgeLabel;html=1;align=center;verticalAlign=middle;resizable=0;points=[];" vertex="1" connectable="0" parent="BDskTO6To6dDaFqz6M62-33">
          <mxGeometry x="-0.8883" y="-1" relative="1" as="geometry">
            <mxPoint as="offset" />
          </mxGeometry>
        </mxCell>
        <mxCell id="BDskTO6To6dDaFqz6M62-37" style="edgeStyle=orthogonalEdgeStyle;rounded=0;orthogonalLoop=1;jettySize=auto;html=1;entryX=0.5;entryY=1;entryDx=0;entryDy=0;" edge="1" parent="dNxyNK7c78bLwvsdeMH5-19" source="BDskTO6To6dDaFqz6M62-29" target="BDskTO6To6dDaFqz6M62-35">
          <mxGeometry relative="1" as="geometry" />
        </mxCell>
        <mxCell id="BDskTO6To6dDaFqz6M62-39" style="edgeStyle=orthogonalEdgeStyle;rounded=0;orthogonalLoop=1;jettySize=auto;html=1;entryX=0.5;entryY=1;entryDx=0;entryDy=0;" edge="1" parent="dNxyNK7c78bLwvsdeMH5-19" source="BDskTO6To6dDaFqz6M62-38" target="BDskTO6To6dDaFqz6M62-32">
          <mxGeometry relative="1" as="geometry" />
        </mxCell>
      </root>
    </mxGraphModel>
  </diagram>
</mxfile>
